<svg xmlns="http://www.w3.org/2000/svg" xmlns:xlink="http://www.w3.org/1999/xlink" viewBox="0,0,256,256" width="24px" height="24px" fill-rule="nonzero"><g fill="#ffffff" fill-rule="nonzero" stroke="none" stroke-width="1" stroke-linecap="butt" stroke-linejoin="miter" stroke-miterlimit="10" stroke-dasharray="" stroke-dashoffset="0" font-family="none" font-weight="none" font-size="none" text-anchor="none" style="mix-blend-mode: normal"><g transform="scale(10.66667,10.66667)"><path d="M20.776,6.257c-0.415,-0.804 -1.138,-1.401 -2.006,-1.657c-0.937,-0.277 -2.205,-0.596 -3.074,-0.596c-0.253,0 -0.696,-0.004 -0.696,-0.004l-0.998,1.143c0,0 -1.316,-0.155 -1.987,-0.155h-0.015c-0.671,0 -1.987,0.155 -1.987,0.155l-1.013,-1.143c0,0 -0.429,0.004 -0.683,0.004c-0.868,0 -2.136,0.319 -3.073,0.596c-0.867,0.256 -1.588,0.848 -2.003,1.652c-0.834,1.613 -2.075,4.812 -2.226,9.748c-0.02,0.67 -0.022,1.262 -0.022,1.262c2.742,2.413 7.223,2.738 7.223,2.738l0.622,-1.529c-1.75,-0.54 -3.026,-1.314 -3.107,-1.364l0.786,-1.277c0.027,0.017 2.739,1.661 5.482,1.661c2.743,0 5.455,-1.645 5.482,-1.661l0.786,1.277c-0.08,0.049 -1.333,0.81 -3.058,1.349l0.791,1.544c0,0 5.252,-1.071 7.014,-2.981c0.003,-5.512 -1.348,-9.038 -2.238,-10.762zM8.5,14c-0.828,0 -1.5,-0.895 -1.5,-2c0,-1.105 0.672,-2 1.5,-2c0.828,0 1.5,0.895 1.5,2c0,1.105 -0.672,2 -1.5,2zM15.5,14c-0.828,0 -1.5,-0.895 -1.5,-2c0,-1.105 0.672,-2 1.5,-2c0.828,0 1.5,0.895 1.5,2c0,1.105 -0.672,2 -1.5,2z"></path></g></g></svg>