<?xml version="1.0" encoding="UTF-8"?>
<svg id="_Слой_2" data-name="Слой 2" xmlns="http://www.w3.org/2000/svg" viewBox="0 0 500 500">
  <defs>
    <style>
      .cls-1 {
        fill: #fff;
      }

      .cls-2 {
        fill: #c93939;
      }

      .cls-3 {
        fill: #a52525;
      }
    </style>
  </defs>
  <polygon class="cls-2" points="49.24 240.27 158.08 71.56 201.62 160.97 201.62 482.82 49.24 430.74 49.24 240.27"/>
  <path class="cls-3" d="m409.19,163.3l-13.76-43.35c-1.14-3.58-3.77-6.49-7.21-7.98L171.62,18.26c-9.14-3.96-19.15,3.45-18.04,13.35l4.5,39.95,43.53,89.4v321.86l265.11-44.69v-207.97l-57.53-66.86Zm-52.9-30.75l-152.58-64.89c-5.04-2.14-7.39-7.96-5.24-13l.76-1.78c2.14-5.04,7.97-7.39,13.01-5.25l152.58,64.89c5.04,2.14,7.39,7.97,5.24,13.01l-.76,1.78c-2.14,5.04-7.97,7.38-13,5.24Z"/>
  <g>
    <path class="cls-1" d="m117,239.04c-11.01,5.1-22.01,10.2-33.02,15.3-1.07.5-1.61,1.45-1.61,2.86v54.17c0,1.41.53,2.02,1.61,1.81,5.03-.95,7.54-1.43,12.57-2.38,1.07-.2,1.61.45,1.61,1.95v22.53c0,1.5-.54,2.29-1.61,2.37-5.03.36-7.54.54-12.57.9-1.07.08-1.61.82-1.61,2.23v53.99c0,1.41.53,2.22,1.61,2.44,11.01,2.21,22.01,4.42,33.02,6.63,1.07.22,1.61,1.14,1.61,2.79v24.5c0,1.65-.54,2.3-1.61,1.96-17.39-5.54-34.78-11.09-52.17-16.63-1.06-.34-1.6-1.15-1.6-2.43v-171.07c0-1.28.53-2.23,1.6-2.85,17.39-10.11,34.78-20.22,52.17-30.33,1.07-.62,1.61-.11,1.61,1.54v24.5c0,1.65-.54,2.72-1.61,3.22Z"/>
    <path class="cls-1" d="m187.58,451.01c.1.79.05,1.64-.15,2.54-.23.5-.35.75-.58,1.25-.39.26-.83.31-1.31.15-5.96-1.9-8.94-2.85-14.9-4.75-.49-.16-.93-.48-1.31-.96-.23-.4-.35-.6-.58-.99-.2-.78-.29-1.62-.29-2.52-1.25-20.88-2.52-41.77-3.8-62.65,0-.71-.24-1.09-.73-1.13l-9.94-.94c-.29-.03-.54.29-.73.95-1.25,19.32-2.52,38.64-3.8,57.95,0,.34-.05.7-.15,1.09-.1.39-.2.74-.29,1.04-.18.25-.26.37-.44.62-.58.15-1.02.18-1.31.08-6.02-1.92-9.03-2.88-15.05-4.8-.29-.09-.73-.39-1.31-.89-.23-.55-.35-.82-.58-1.36-.1-.35-.15-1.07-.15-2.16,5.46-78.95,10.59-157.92,15.49-236.9,0-1,.15-1.83.44-2.49.18-.4.26-.6.44-1,.39-.56.83-.98,1.31-1.26,8.88-5.16,13.33-7.75,22.21-12.91.49-.28.92-.36,1.31-.22.23.19.35.29.58.48.1.31.17.68.22,1.1.05.43.12.8.22,1.1,5.31,89.85,10.36,179.71,15.19,269.58Zm-25.71-103.81c.39,0,.58-.45.58-1.33-1.11-18.95-2.23-37.9-3.36-56.85-.1-.5-.15-.49-.15.03-1.16,19-2.33,38.01-3.51,57.01,0,.86.24,1.28.73,1.27,2.28-.05,3.42-.08,5.7-.13Z"/>
  </g>
  <g>
    <path class="cls-1" d="m367.94,214.13v24.22c0,1.63-1.49,2.11-4.45,1.45-13.77-3.08-27.54-6.17-41.31-9.25-2.97-.67-4.46-.1-4.46,1.68v206.1c0,1.78-1.49,2.89-4.45,3.3-14.85,2.09-29.7,4.19-44.55,6.28-2.7.38-4.05-.4-4.05-2.35v-224.97c0-1.95-1.49-3.26-4.46-3.92-13.9-3.11-27.81-6.23-41.71-9.34-2.97-.67-4.45-2.05-4.45-4.15v-31.27c0-2.1,1.48-2.74,4.45-1.91,48.32,13.49,96.65,26.97,144.97,40.46,2.97.83,4.45,2.06,4.45,3.69Z"/>
    <path class="cls-1" d="m452.16,350.66c-13.63-.27-27.26-.53-40.9-.8-2.97-.06-4.45-.77-4.45-2.15v-122.92c0-1.51,1.48-1.85,4.45-1.02,13.63,3.8,27.26,7.61,40.9,11.41,2.97.83,4.45,1.92,4.45,3.28v110.43c0,1.23-1.49,1.82-4.45,1.76Zm0,71.37c-13.63,1.92-27.26,3.85-40.9,5.77-2.97.42-4.45-.13-4.45-1.64v-46.74c0-1.51,1.48-2.32,4.45-2.43,13.63-.5,27.26-.99,40.9-1.49,2.97-.11,4.45.52,4.45,1.87v41.99c0,1.36-1.49,2.24-4.45,2.66Z"/>
  </g>
</svg>